<svg xmlns="http://www.w3.org/2000/svg" viewBox="0 0 192 192" width="192" height="192">
  <circle cx="96" cy="96" r="88" fill="#101418"/>
  <circle cx="96" cy="96" r="78" fill="#1A1F25"/>

  <!-- Gauge ticks -->
  <g stroke="#445164" stroke-width="3" stroke-linecap="round">
    <line x1="37" y1="134" x2="43" y2="128"/>
    <line x1="44" y1="108" x2="52" y2="106"/>
    <line x1="48" y1="80"  x2="56" y2="82"/>
    <line x1="64" y1="56"  x2="70" y2="62"/>
    <line x1="96" y1="46"  x2="96" y2="54"/>
    <line x1="128" y1="56" x2="122" y2="62"/>
    <line x1="144" y1="80" x2="136" y2="82"/>
    <line x1="148" y1="108" x2="140" y2="106"/>
    <line x1="155" y1="134" x2="149" y2="128"/>
  </g>

  <!-- Speedometer arc, green → amber → red -->
  <path d="M40 138 A68 68 0 0 1 96 52" fill="none" stroke="#7BD389" stroke-width="8" stroke-linecap="round"/>
  <path d="M96 52 A68 68 0 0 1 140 80" fill="none" stroke="#FFB454" stroke-width="8" stroke-linecap="round"/>
  <path d="M140 80 A68 68 0 0 1 152 138" fill="none" stroke="#FF6B6B" stroke-width="8" stroke-linecap="round"/>

  <!-- Lightning bolt -->
  <polygon points="104,68 78,110 94,110 86,140 116,90 100,90" fill="#FFD66B"/>
</svg>
